<svg width="64" height="40" viewBox="0 0 64 40" fill="none" xmlns="http://www.w3.org/2000/svg">
<path d="M11.635 39.8012V37.1538C11.635 36.1387 10.8665 35.477 9.54929 35.477C8.89079 35.477 8.17729 35.6535 7.68329 36.2271C7.29929 35.7417 6.75054 35.477 5.92729 35.477C5.37829 35.477 4.82979 35.6092 4.39054 36.0947V35.5652H3.23804V39.8012H4.39054V37.4625C4.39054 36.7126 4.88454 36.3594 5.65304 36.3594C6.42104 36.3594 6.80554 36.7566 6.80554 37.4625V39.8012H7.95804V37.4625C7.95804 36.7126 8.50654 36.3594 9.22004 36.3594C9.98854 36.3594 10.3725 36.7566 10.3725 37.4625V39.8012H11.635ZM28.7028 35.5652H26.837V34.2856H25.6845V35.5652H24.6418V36.4034H25.6843V38.3451C25.6843 39.316 26.1783 39.8894 27.4955 39.8894C27.9895 39.8894 28.538 39.7572 28.9225 39.5807L28.593 38.7863C28.2638 38.9628 27.8798 39.007 27.6053 39.007C27.0565 39.007 26.837 38.7423 26.837 38.3009V36.4034H28.7028V35.5652ZM38.4718 35.4768C37.8133 35.4768 37.3743 35.7417 37.0998 36.0947V35.5652H35.9473V39.8012H37.0998V37.4185C37.0998 36.7125 37.4838 36.3154 38.1973 36.3154C38.4168 36.3154 38.6913 36.3596 38.9108 36.4036L39.24 35.5212C39.0205 35.477 38.6913 35.477 38.4718 35.477V35.4768ZM23.7088 35.9182C23.1598 35.6092 22.3915 35.477 21.5683 35.477C20.2513 35.477 19.3733 36.0064 19.3733 36.8448C19.3733 37.5509 20.0318 37.9479 21.1843 38.0804L21.733 38.1246C22.3368 38.2127 22.666 38.3451 22.666 38.5658C22.666 38.8746 22.227 39.0953 21.4585 39.0953C20.6903 39.0953 20.0865 38.8746 19.7023 38.6541L19.1535 39.36C19.7573 39.713 20.5805 39.8894 21.4035 39.8894C22.9403 39.8894 23.8185 39.316 23.8185 38.5216C23.8185 37.7714 23.105 37.3743 22.0073 37.242L21.4585 37.1978C20.9645 37.1536 20.5805 37.0655 20.5805 36.8008C20.5805 36.4918 20.9645 36.3154 21.5683 36.3154C22.227 36.3154 22.8855 36.5359 23.2148 36.6683L23.7088 35.9182ZM54.3325 35.477C53.6738 35.477 53.2348 35.7417 52.9603 36.0947V35.5652H51.8078V39.8012H52.9603V37.4185C52.9603 36.7125 53.3445 36.3154 54.0578 36.3154C54.2775 36.3154 54.552 36.3596 54.7715 36.4036L55.1008 35.5212C54.8813 35.477 54.552 35.477 54.3325 35.477ZM39.6243 37.6832C39.6243 38.9628 40.7218 39.8894 42.4233 39.8894C43.1915 39.8894 43.7403 39.7572 44.289 39.4042L43.7403 38.6541C43.3013 38.9188 42.8623 39.051 42.3683 39.051C41.4353 39.051 40.7768 38.5216 40.7768 37.6832C40.7768 36.889 41.4353 36.3594 42.3683 36.3154C42.8623 36.3154 43.3013 36.4476 43.7403 36.7126L44.289 35.9624C43.7403 35.6092 43.1915 35.477 42.4233 35.477C40.7218 35.477 39.6243 36.4036 39.6243 37.6832ZM50.2713 37.6832V35.5652H49.1188V36.0947C48.7345 35.6977 48.1858 35.477 47.4723 35.477C45.9905 35.477 44.838 36.4036 44.838 37.6832C44.838 38.9628 45.9905 39.8894 47.4723 39.8894C48.2405 39.8894 48.7895 39.6689 49.1188 39.2717V39.8012H50.2713V37.6832ZM46.0453 37.6832C46.0453 36.9331 46.649 36.3154 47.6368 36.3154C48.5698 36.3154 49.2285 36.889 49.2285 37.6832C49.2285 38.4334 48.5698 39.051 47.6368 39.051C46.649 39.0068 46.0453 38.4334 46.0453 37.6832ZM32.2703 35.477C30.7335 35.477 29.6358 36.3594 29.6358 37.6832C29.6358 39.007 30.7333 39.8894 32.325 39.8894C33.0933 39.8894 33.8618 39.713 34.4655 39.316L33.9165 38.6541C33.4775 38.9188 32.9288 39.0953 32.38 39.0953C31.6665 39.0953 30.953 38.8305 30.7883 38.0802H34.685V37.7274C34.74 36.3594 33.752 35.477 32.27 35.477H32.2703ZM32.2703 36.2711C32.9835 36.2711 33.4778 36.6243 33.5873 37.2862H30.8433C30.953 36.7125 31.447 36.2711 32.2703 36.2711ZM60.8633 37.6832V33.8884H59.7108V36.0947C59.3265 35.6977 58.7778 35.477 58.0643 35.477C56.5825 35.477 55.43 36.4036 55.43 37.6832C55.43 38.9628 56.5825 39.8894 58.0643 39.8894C58.8328 39.8894 59.3815 39.6689 59.7108 39.2717V39.8012H60.8633V37.6832ZM56.6375 37.6832C56.6375 36.9331 57.241 36.3154 58.229 36.3154C59.162 36.3154 59.8205 36.889 59.8205 37.6832C59.8205 38.4334 59.162 39.051 58.229 39.051C57.241 39.0068 56.6375 38.4334 56.6375 37.6832ZM18.1108 37.6832V35.5652H16.9583V36.0947C16.574 35.6977 16.0253 35.477 15.3118 35.477C13.83 35.477 12.6775 36.4036 12.6775 37.6832C12.6775 38.9628 13.83 39.8894 15.3118 39.8894C16.0803 39.8894 16.629 39.6689 16.9583 39.2717V39.8012H18.1108V37.6832ZM13.83 37.6832C13.83 36.9331 14.4338 36.3154 15.4215 36.3154C16.3545 36.3154 17.0133 36.889 17.0133 37.6832C17.0133 38.4334 16.3545 39.051 15.4215 39.051C14.4338 39.0068 13.83 38.4334 13.83 37.6832Z" fill="black"/>
<path d="M23.3245 3.39771H40.612V28.3728H23.3245V3.39771Z" fill="#FF5F00"/>
<path d="M24.4223 15.8852C24.4223 10.8109 27.3857 6.30995 31.9408 3.39759C28.5933 1.2796 24.3675 0 19.7575 0C8.83575 0 0 7.10412 0 15.8852C0 24.6661 8.83575 31.7705 19.7572 31.7705C24.3673 31.7705 28.593 30.4909 31.9408 28.3727C27.3857 25.5045 24.4223 20.9596 24.4223 15.8852Z" fill="#EB001B"/>
<path d="M63.9365 15.8852C63.9365 24.6661 55.1007 31.7705 44.1792 31.7705C39.5692 31.7705 35.3435 30.4909 31.9957 28.3727C36.6057 25.4605 39.5145 20.9596 39.5145 15.8852C39.5145 10.8109 36.5507 6.30995 31.9957 3.39759C35.3432 1.2796 39.5692 0 44.1792 0C55.1007 0 63.9367 7.14834 63.9367 15.8852H63.9365Z" fill="#F79E1B"/>
</svg>
