<svg width="73" height="20" viewBox="0 0 73 20" fill="none" xmlns="http://www.w3.org/2000/svg">
<path fill-rule="evenodd" clip-rule="evenodd" d="M6.75054 0.0034129C7.40272 -0.000505778 9.34094 -0.175839 10.1619 2.60718C10.715 4.48186 11.5959 7.55266 12.8048 11.8196H13.2971C14.5935 7.3211 15.484 4.25029 15.9688 2.60718C16.7983 -0.204829 18.8722 0.00346801 19.7017 0.00346801L26.1018 0.00347603V20H19.5786V8.2157H19.1412L15.5049 20H10.597L6.96063 8.20697H6.5232V20H0V0.00347603L6.75054 0.0034129ZM35.469 0.00347603V11.7965H35.9894L40.4127 2.09918C41.2714 0.169386 43.1014 0.00347603 43.1014 0.00347603H49.4139V20H42.7545V8.20697H42.2341L37.8975 17.9043C37.0389 19.8254 35.1221 20 35.1221 20H28.8096V0.00347603H35.469ZM72.4319 9.50596C71.5029 12.1499 68.5858 14.0433 65.356 14.0433H58.3723V20H52.0396V9.50596H72.4319Z" fill="#0F754E"/>
<path fill-rule="evenodd" clip-rule="evenodd" d="M65.6615 0.00378418H51.7075C52.0396 4.45569 55.8567 8.26681 59.8082 8.26681H72.8719C73.6258 4.56675 71.0306 0.00378418 65.6615 0.00378418Z" fill="url(#paint0_linear)"/>
<defs>
<linearGradient id="paint0_linear" x1="73" y1="5.20158" x2="51.7075" y2="5.20158" gradientUnits="userSpaceOnUse">
<stop stop-color="#1F5CD7"/>
<stop offset="1" stop-color="#02AEFF"/>
</linearGradient>
</defs>
</svg>
