<svg width="64" height="40" viewBox="0 0 64 40" fill="none" xmlns="http://www.w3.org/2000/svg">
<path d="M12.5107 0H28.4552C30.6809 0 32.0652 1.81425 31.5462 4.0475L24.1227 35.9188C23.5989 38.1442 21.3702 39.96 19.1432 39.96H3.19992C0.97742 39.96 -0.41008 38.1442 0.10917 35.9188L7.53567 4.0475C8.05492 1.81425 10.2822 0 12.5107 0Z" fill="#E21836"/>
<path d="M27.1283 0H45.4642C47.6895 0 46.6862 1.81425 46.1628 4.0475L38.7402 35.9188C38.2197 38.1442 38.382 39.96 36.152 39.96H17.8162C15.5862 39.96 14.2062 38.1442 14.73 35.9188L22.1518 4.0475C22.6788 1.81425 24.9015 0 27.1283 0Z" fill="#00447C"/>
<path d="M44.737 0H60.6815C62.9105 0 64.2947 1.81425 63.7715 4.0475L56.349 35.9188C55.8252 38.1442 53.5952 39.96 51.3665 39.96H35.4295C33.1995 39.96 31.8162 38.1442 32.3387 35.9188L39.762 4.0475C40.2812 1.81425 42.507 0 44.737 0Z" fill="#007B84"/>
<path d="M16.6745 10.214C15.035 10.2307 14.5507 10.214 14.396 10.1775C14.3365 10.46 13.23 15.564 13.227 15.5682C12.9887 16.6007 12.8155 17.337 12.2265 17.8122C11.8925 18.0885 11.5022 18.222 11.0497 18.222C10.3227 18.222 9.89899 17.8607 9.82799 17.176L9.81424 16.941C9.81424 16.941 10.0357 15.5577 10.0357 15.55C10.0357 15.55 11.197 10.8987 11.405 10.284C11.416 10.249 11.419 10.2307 11.4217 10.214C9.16149 10.234 8.76074 10.214 8.73324 10.1775C8.71799 10.2275 8.66199 10.516 8.66199 10.516L7.47624 15.7585L7.37449 16.203L7.17749 17.6572C7.17749 18.0885 7.26224 18.4407 7.43074 18.7385C7.97099 19.6825 9.51199 19.824 10.3837 19.824C11.5067 19.824 12.5605 19.5852 13.2725 19.1495C14.5082 18.4195 14.8317 17.278 15.12 16.2635L15.2537 15.7432C15.2537 15.7432 16.45 10.9125 16.6532 10.284C16.6607 10.249 16.664 10.2307 16.6745 10.214ZM20.7445 14.111C20.4562 14.111 19.9295 14.181 19.456 14.413C19.2842 14.5012 19.1217 14.603 18.9502 14.7045L19.105 14.146L19.0202 14.052C18.0165 14.2552 17.7917 14.2825 16.8645 14.413L16.787 14.4647C16.6792 15.3572 16.5835 16.0285 16.1845 17.7832C16.0316 18.4323 15.8756 19.0806 15.7165 19.7282L15.759 19.81C16.7095 19.76 16.9977 19.76 17.8237 19.7735L17.8905 19.701C17.9955 19.1635 18.009 19.0375 18.2415 17.9487C18.3507 17.4327 18.5785 16.2987 18.6907 15.895C18.897 15.7992 19.1007 15.7052 19.295 15.7052C19.758 15.7052 19.7015 16.109 19.6837 16.27C19.6637 16.54 19.4952 17.4222 19.3222 18.1797L19.2067 18.6685C19.1265 19.0297 19.0382 19.3805 18.9577 19.7385L18.9927 19.81C19.9292 19.76 20.215 19.76 21.0147 19.7735L21.1087 19.701C21.2535 18.8615 21.2957 18.6367 21.5522 17.4145L21.6812 16.853C21.932 15.7537 22.058 15.1965 21.8682 14.7425C21.6677 14.2337 21.1865 14.111 20.7447 14.111H20.7445ZM25.2915 15.2617C24.7935 15.3575 24.476 15.421 24.1605 15.4622C23.8477 15.5122 23.5425 15.558 23.0615 15.6247L23.0232 15.6592L22.9882 15.6867C22.9382 16.0452 22.9032 16.355 22.8367 16.7192C22.7805 17.0957 22.6937 17.5237 22.5527 18.1385C22.4435 18.609 22.3872 18.773 22.325 18.9385C22.2642 19.1042 22.1975 19.2652 22.0747 19.728L22.1035 19.7707L22.1275 19.81C22.5772 19.7887 22.8715 19.7735 23.1737 19.7707C23.4757 19.76 23.7887 19.7707 24.2727 19.7732L24.3152 19.739L24.3607 19.7007C24.4307 19.2832 24.441 19.171 24.4837 18.9675C24.5262 18.749 24.5992 18.4467 24.7785 17.639C24.8632 17.2597 24.9575 16.8815 25.0455 16.4945C25.1367 16.109 25.2322 15.7295 25.3232 15.35L25.3097 15.3042L25.2915 15.2617ZM25.302 13.7102C24.8495 13.4432 24.0557 13.528 23.5212 13.8967C22.9885 14.2582 22.9277 14.7712 23.3787 15.0417C23.8232 15.3012 24.6202 15.224 25.15 14.852C25.6817 14.4827 25.7482 13.9745 25.302 13.7102ZM28.0377 19.8937C28.953 19.8937 29.8912 19.6412 30.5975 18.893C31.1407 18.286 31.39 17.3827 31.4762 17.0107C31.757 15.778 31.5382 15.2025 31.2637 14.852C30.8462 14.3175 30.1085 14.146 29.3432 14.146C28.8832 14.146 27.7872 14.1915 26.931 14.981C26.316 15.5502 26.032 16.323 25.8607 17.0635C25.6877 17.8185 25.4887 19.177 26.7382 19.6827C27.1237 19.8482 27.6795 19.8937 28.0377 19.8937ZM27.9662 17.12C28.1772 16.1865 28.4265 15.403 29.0622 15.403C29.5605 15.403 29.5967 15.986 29.3752 16.9225C29.3355 17.1305 29.1537 17.9035 28.9077 18.2325C28.7357 18.4755 28.5327 18.6227 28.3077 18.6227C28.241 18.6227 27.8435 18.6227 27.8372 18.0325C27.8342 17.741 27.8937 17.4432 27.9662 17.12ZM33.764 19.7737L33.8355 19.701C33.937 19.1635 33.9537 19.0372 34.1782 17.949C34.2907 17.4327 34.5232 16.299 34.6322 15.895C34.839 15.799 35.0392 15.705 35.2397 15.705C35.6995 15.705 35.6435 16.1087 35.6252 16.2697C35.6085 16.5402 35.4397 17.422 35.2637 18.1795L35.1545 18.6682C35.071 19.0297 34.98 19.3802 34.8995 19.7387L34.9345 19.8102C35.8745 19.7602 36.149 19.7602 36.9535 19.7737L37.0507 19.701C37.1917 18.861 37.23 18.6365 37.4942 17.4145L37.62 16.8527C37.872 15.7535 37.9995 15.1967 37.8127 14.7427C37.6065 14.234 37.1222 14.1112 36.6865 14.1112C36.3977 14.1112 35.8682 14.1807 35.3975 14.4132C35.2292 14.5012 35.0605 14.6027 34.895 14.7047L35.0392 14.1462L34.9617 14.0517C33.9582 14.2552 33.7292 14.2825 32.803 14.4132L32.7317 14.4647C32.6195 15.3575 32.5282 16.0282 32.1292 17.7835C31.9763 18.4324 31.8203 19.0807 31.6615 19.7282L31.704 19.8102C32.6557 19.7602 32.9397 19.7602 33.764 19.7737ZM40.6685 19.81C40.7275 19.5215 41.0785 17.8125 41.0815 17.8125C41.0815 17.8125 41.3802 16.5582 41.3987 16.5127C41.3987 16.5127 41.4927 16.3822 41.5867 16.3305H41.725C43.0305 16.3305 44.5047 16.3305 45.66 15.4805C46.4462 14.8975 46.9837 14.0367 47.2235 12.9905C47.2857 12.734 47.3315 12.429 47.3315 12.124C47.3315 11.7232 47.2512 11.3267 47.0187 11.017C46.4295 10.1927 45.2562 10.1775 43.9017 10.1712L43.2342 10.1775C41.5005 10.199 40.8052 10.1927 40.5195 10.1577C40.4955 10.284 40.45 10.5087 40.45 10.5087C40.45 10.5087 39.829 13.387 39.829 13.3915L38.2727 19.7995C39.7865 19.7812 40.4072 19.7812 40.6685 19.81ZM41.8192 14.697C41.8192 14.697 42.4792 11.8245 42.4762 11.8355L42.4977 11.688L42.507 11.576L42.771 11.603C42.771 11.603 44.1327 11.72 44.1645 11.723C44.702 11.931 44.9235 12.467 44.769 13.1665C44.6277 13.806 44.2132 14.3435 43.6802 14.603C43.2415 14.823 42.704 14.8412 42.1502 14.8412H41.792L41.8192 14.697ZM45.9302 17.1732C45.7557 17.917 45.5552 19.2757 46.7985 19.76C47.195 19.9285 47.5502 19.9787 47.911 19.9605C48.2925 19.94 48.6457 19.7487 48.973 19.4735L48.8842 19.8132L48.9407 19.8857C49.835 19.8482 50.1125 19.8482 51.0812 19.8557L51.1692 19.7887C51.3105 18.957 51.444 18.1495 51.8117 16.5582C51.9907 15.7962 52.1695 15.0415 52.3532 14.2825L52.3245 14.199C51.3242 14.3842 51.057 14.424 50.0945 14.5602L50.0215 14.6197C50.0117 14.6972 50.0015 14.7715 49.9922 14.8457C49.8427 14.604 49.6257 14.3975 49.2912 14.269C48.8632 14.1005 47.8582 14.3175 46.9945 15.104C46.3872 15.6657 46.0957 16.4352 45.9302 17.1732ZM48.0312 17.2187C48.2455 16.3017 48.4912 15.5262 49.1287 15.5262C49.5317 15.5262 49.744 15.898 49.7007 16.5322C49.6638 16.7037 49.6255 16.8749 49.5857 17.0457C49.522 17.3182 49.453 17.5882 49.3857 17.8587C49.3172 18.0437 49.2375 18.2182 49.1502 18.3345C48.9862 18.567 48.596 18.711 48.3712 18.711C48.3075 18.711 47.9142 18.711 47.9007 18.131C47.8975 17.8425 47.957 17.545 48.0312 17.2185V17.2187ZM59.0027 14.1915L58.9252 14.1032C57.9355 14.3037 57.7562 14.3357 56.847 14.4585L56.78 14.5252C56.777 14.5362 56.7742 14.5527 56.7695 14.568L56.7665 14.553C56.0895 16.115 56.1092 15.778 55.5582 17.0075C55.555 16.9515 55.555 16.9167 55.552 16.8572L55.414 14.1915L55.3275 14.1032C54.2905 14.3037 54.266 14.3357 53.3085 14.4585L53.2337 14.5252C53.2232 14.5572 53.2232 14.5922 53.217 14.6302L53.2232 14.644C53.343 15.2555 53.3142 15.119 53.4342 16.0845C53.4902 16.5582 53.565 17.0347 53.6207 17.5027C53.7152 18.2857 53.7682 18.6712 53.8835 19.8665C53.237 20.9335 53.0837 21.3375 52.461 22.274L52.4655 22.2832L52.027 22.9767C51.977 23.0497 51.9315 23.0997 51.8677 23.1212C51.7977 23.1557 51.7067 23.162 51.5805 23.162H51.3375L50.9765 24.363L52.2152 24.3842C52.9422 24.3812 53.3992 24.0412 53.6452 23.5842L54.4242 22.2495H54.4117L54.4937 22.1555C55.0177 21.0277 59.0027 14.1915 59.0027 14.1915ZM45.9302 29.9635H45.4047L47.3497 23.531H47.9947L48.1997 22.8685L48.2192 23.6052C48.1952 24.0607 48.5535 24.4645 49.4947 24.3977H50.5835L50.958 23.1592H50.5485C50.313 23.1592 50.2035 23.0997 50.2172 22.9722L50.1975 22.2225H48.1817V22.2265C47.53 22.24 45.5835 22.289 45.1895 22.394C44.7127 22.5165 44.2102 22.8782 44.2102 22.8782L44.4077 22.2147H42.522L42.129 23.531L40.1582 30.0617H39.7757L39.4007 31.2915H43.1565L43.0307 31.7015H44.8812L45.0042 31.2915H45.5232L45.9302 29.9635ZM44.3892 24.838C44.0872 24.9215 43.5255 25.175 43.5255 25.175L44.0252 23.531H45.5232L45.162 24.7287C45.162 24.7287 44.699 24.7562 44.3895 24.838H44.3892ZM44.418 27.1865C44.418 27.1865 43.9475 27.2457 43.6377 27.3155C43.3327 27.408 42.7605 27.6995 42.7605 27.6995L43.2767 25.9887H44.7825L44.418 27.1865ZM43.5785 29.9785H42.0757L42.5115 28.5347H44.0095L43.5785 29.9785ZM47.1977 25.9887H49.364L49.0527 26.997H46.8577L46.5282 28.099H48.449L46.9945 30.1467C46.8927 30.2972 46.8015 30.3505 46.7 30.3927C46.5982 30.4445 46.4645 30.5052 46.31 30.5052H45.777L45.411 31.7122H46.8045C47.529 31.7122 47.957 31.3827 48.2727 30.9502L49.2702 29.5852L49.4842 30.9712C49.5297 31.2307 49.7162 31.3827 49.8425 31.4417C49.982 31.5117 50.1262 31.6317 50.33 31.6497C50.5482 31.659 50.706 31.6665 50.811 31.6665H51.496L51.907 30.3155H51.637C51.482 30.3155 51.2147 30.2895 51.1695 30.241C51.1237 30.1817 51.1237 30.091 51.0995 29.9525L50.882 28.5635H49.9925L50.3827 28.099H52.5735L52.9105 26.997H50.8822L51.198 25.9887H53.2202L53.5952 24.7455H47.5667L47.1977 25.9887ZM28.9015 30.2592L29.407 28.5772H31.4852L31.8647 27.3262H29.7847L30.1022 26.291H32.1347L32.5115 25.0795H27.4257L27.057 26.291H28.2125L27.9042 27.326H26.7457L26.3617 28.5985H27.5167L26.8427 30.824C26.752 31.1185 26.8855 31.2307 26.9702 31.3677C27.057 31.501 27.1447 31.5892 27.3422 31.6392C27.546 31.6847 27.6855 31.712 27.875 31.712H30.2177L30.6352 30.326L29.5967 30.4687C29.3962 30.4687 28.8407 30.4447 28.9015 30.2592ZM29.1397 22.2072L28.6132 23.159C28.5007 23.3667 28.399 23.496 28.3077 23.5552C28.2272 23.6052 28.0677 23.6265 27.837 23.6265H27.5622L27.195 24.844H28.1075C28.5465 24.844 28.8832 24.6832 29.0442 24.6027C29.2172 24.5102 29.2627 24.563 29.3962 24.434L29.7045 24.167H32.554L32.9322 22.8995H30.8462L31.2105 22.207H29.1397V22.2072ZM33.3465 30.2837C33.298 30.2137 33.333 30.0905 33.4072 29.834L34.186 27.2562H36.9567C37.3605 27.2505 37.6517 27.2457 37.8417 27.2322C38.0452 27.2107 38.2667 27.138 38.508 27.0075C38.7572 26.8707 38.8847 26.7265 38.9922 26.561C39.1122 26.396 39.3052 26.0342 39.4707 25.477L40.4497 22.2147L37.5747 22.2315C37.5747 22.2315 36.6892 22.362 36.2995 22.5065C35.9062 22.6672 35.3442 23.1165 35.3442 23.1165L35.6037 22.2222H33.8277L31.3412 30.4687C31.253 30.7887 31.1937 31.0212 31.1802 31.161C31.1757 31.3112 31.37 31.4602 31.496 31.5725C31.6447 31.6847 31.8647 31.6665 32.0757 31.6847C32.2977 31.7015 32.6132 31.712 33.049 31.712H34.414L34.8327 30.2972L33.611 30.4127C33.4802 30.4127 33.386 30.3427 33.3465 30.2837ZM34.6885 25.5152H37.5985L37.4135 26.095C37.3877 26.1085 37.3255 26.0662 37.0292 26.1012H34.5092L34.6885 25.5152ZM35.2715 23.5702H38.2062L37.995 24.2687C37.995 24.2687 36.612 24.2552 36.3905 24.296C35.4155 24.4647 34.8462 24.9855 34.8462 24.9855L35.2715 23.5705V23.5702ZM37.479 28.0367C37.4547 28.1235 37.4165 28.1762 37.3635 28.216C37.3042 28.254 37.2085 28.2675 37.066 28.2675H36.6515L36.676 27.5615H34.951L34.881 31.0137C34.8785 31.2627 34.9025 31.407 35.0847 31.5225C35.2672 31.6665 35.8287 31.685 36.5847 31.685H37.6655L38.0555 30.3925L37.1147 30.4442L36.8017 30.4625C36.7592 30.4442 36.7182 30.4275 36.6727 30.3822C36.6332 30.343 36.5662 30.367 36.5772 30.118L36.5847 29.233L37.5712 29.1922C38.1042 29.1922 38.332 29.0187 38.5262 28.8537C38.7115 28.6955 38.7722 28.5137 38.8422 28.2675L39.0077 27.484H37.6517L37.4787 28.0365L37.479 28.0367Z" fill="#FEFEFE"/>
</svg>
