<svg width="20" height="20" viewBox="0 0 20 20" fill="none" xmlns="http://www.w3.org/2000/svg">
<path d="M10 0C8.02219 0 6.08879 0.58649 4.4443 1.6853C2.79981 2.78412 1.51809 4.3459 0.761209 6.17316C0.00433284 8.00042 -0.1937 10.0111 0.192152 11.9509C0.578004 13.8907 1.53041 15.6725 2.92894 17.0711C4.32746 18.4696 6.10929 19.422 8.0491 19.8078C9.98891 20.1937 11.9996 19.9957 13.8268 19.2388C15.6541 18.4819 17.2159 17.2002 18.3147 15.5557C19.4135 13.9112 20 11.9778 20 10C19.997 7.34876 18.9425 4.80696 17.0678 2.93225C15.193 1.05754 12.6512 0.00300303 10 0ZM10 18.4615C8.32647 18.4615 6.69052 17.9653 5.29902 17.0355C3.90753 16.1057 2.823 14.7842 2.18256 13.2381C1.54213 11.6919 1.37456 9.99061 1.70105 8.34923C2.02754 6.70786 2.83343 5.20016 4.01679 4.01679C5.20016 2.83342 6.70786 2.02754 8.34924 1.70105C9.99062 1.37456 11.6919 1.54212 13.2381 2.18256C14.7842 2.82299 16.1057 3.90753 17.0355 5.29902C17.9653 6.69051 18.4615 8.32646 18.4615 10C18.459 12.2434 17.5667 14.3941 15.9804 15.9804C14.3941 17.5667 12.2434 18.459 10 18.4615ZM6.92337 9.99952C6.92344 10.6453 7.12667 11.2747 7.5043 11.7986C7.88193 12.3224 8.4148 12.7142 9.02744 12.9184C9.64009 13.1226 10.3015 13.1289 10.9179 12.9364C11.5343 12.7438 12.0745 12.3623 12.462 11.8457C12.5846 11.6826 12.7669 11.5748 12.9689 11.5462C13.0689 11.532 13.1707 11.5376 13.2686 11.5628C13.3664 11.588 13.4583 11.6321 13.5391 11.6928C13.6198 11.7535 13.6879 11.8295 13.7392 11.9165C13.7906 12.0035 13.8244 12.0997 13.8386 12.1997C13.8528 12.2997 13.8471 12.4016 13.822 12.4994C13.7968 12.5972 13.7526 12.6891 13.6919 12.7699C13.1105 13.5446 12.3002 14.1167 11.3756 14.4053C10.451 14.6939 9.4591 14.6843 8.54029 14.3778C7.62147 14.0714 6.82235 13.4837 6.25608 12.6979C5.68981 11.9121 5.3851 10.9681 5.3851 9.99952C5.3851 9.03095 5.68981 8.08693 6.25608 7.30115C6.82235 6.51536 7.62147 5.92764 8.54029 5.62121C9.4591 5.31478 10.451 5.30517 11.3756 5.59375C12.3002 5.88233 13.1105 6.45446 13.6919 7.22913C13.8113 7.39241 13.8615 7.59613 13.8318 7.79619C13.8021 7.99625 13.6947 8.17654 13.533 8.29804C13.3713 8.41955 13.1683 8.47248 12.9679 8.44538C12.7674 8.41829 12.5857 8.31334 12.4621 8.15327C12.0746 7.63663 11.5344 7.255 10.9179 7.06245C10.3015 6.8699 9.64009 6.87618 9.02741 7.08041C8.41474 7.28463 7.88185 7.67645 7.50423 8.20035C7.1266 8.72426 6.92339 9.3537 6.92337 9.99952Z" fill="black"/>
</svg>
