<svg width="59" height="20" viewBox="0 0 59 20" fill="none" xmlns="http://www.w3.org/2000/svg">
<path d="M30.5134 6.39377C30.4797 9.17985 32.8787 10.7345 34.6858 11.6589C36.5424 12.6073 37.1661 13.2155 37.1587 14.0637C37.1449 15.3617 35.6777 15.9346 34.3048 15.9568C31.9096 15.9958 30.5168 15.278 29.4097 14.7351L28.5468 18.9735C29.6576 19.5108 31.7146 19.9794 33.8476 20C38.8545 20 42.1301 17.4055 42.1479 13.3829C42.1675 8.27769 35.421 7.99511 35.4671 5.71321C35.483 5.02129 36.1119 4.28292 37.4901 4.09518C38.1723 4.00034 40.0555 3.92776 42.1905 4.95984L43.0285 0.859098C41.8803 0.420235 40.4046 0 38.5673 0C33.8547 0 30.5401 2.6298 30.5134 6.39377ZM51.0806 0.35322C50.1664 0.35322 49.3959 0.91305 49.052 1.77215L41.8999 19.6988H46.9032L47.8988 16.8104H54.0127L54.5902 19.6988H59L55.1519 0.35322H51.0806ZM51.7806 5.57918L53.2245 12.8437H49.2701L51.7806 5.57918ZM24.4472 0.353462L20.5034 19.6986H25.2711L29.2131 0.352978H24.4472V0.353462ZM17.3942 0.352978L12.4317 13.5206L10.4243 2.32472C10.1888 1.0749 9.25862 0.35322 8.22566 0.35322H0.113621L0 0.914984C1.66537 1.29433 3.55752 1.90618 4.70387 2.56084C5.40541 2.96076 5.60546 3.31035 5.83593 4.26066L9.63797 19.6988H14.6763L22.4006 0.35322H17.3942" fill="url(#paint0_linear)"/>
<defs>
<linearGradient id="paint0_linear" x1="27.1247" y1="20.4012" x2="27.7323" y2="-0.137431" gradientUnits="userSpaceOnUse">
<stop stop-color="#222357"/>
<stop offset="1" stop-color="#254AA5"/>
</linearGradient>
</defs>
</svg>
