<svg width="25" height="25" viewBox="0 0 25 25" fill="none" xmlns="http://www.w3.org/2000/svg">
<path d="M13.5187 18.3415H16.5112V21.2683H13.5187V18.3415Z" fill="black"/>
<path d="M18.7556 18.3415H21.7481V21.2683H18.7556V18.3415Z" fill="black"/>
<path d="M13.5187 13.2195H16.5112V16.1463H13.5187V13.2195Z" fill="black"/>
<path d="M18.7556 13.2195H21.7481V16.1463H18.7556V13.2195Z" fill="black"/>
<path d="M21.7481 8.82926H17.2594V5.90244C17.2594 4.65853 16.2868 3.70731 15.015 3.70731H10.5262C9.25437 3.70731 8.2818 4.65853 8.2818 5.90244V8.82926H3.79302C3.34414 8.82926 3.04489 9.12195 3.04489 9.56097V9.70731L4.46634 18.561C4.54115 19.2927 5.21447 19.8049 5.9626 19.8049H12.0224V18.3415H5.9626L4.69078 10.2927H21.7481V8.82926ZM9.77806 5.90244C9.77806 5.46341 10.0773 5.17073 10.5262 5.17073H15.015C15.4638 5.17073 15.7631 5.46341 15.7631 5.90244V8.82926H9.77806V5.90244Z" fill="black"/>
</svg>
