<svg width="24" height="25" viewBox="0 0 24 25" fill="none" xmlns="http://www.w3.org/2000/svg">
<g clip-path="url(#clip0)">
<path d="M19.4141 2.99296L20.0914 6.99033L23.9889 8.84404L22.0235 12.4686L24 16.0932L20.0692 17.9469L19.3919 21.9442L15.0724 21.3125L11.9966 24.1707L8.90973 21.2711L4.6236 21.9339L3.93516 17.9054L0.0598755 16.0621L2.03638 12.4375L0.0709794 8.84404L3.96847 6.96962L4.64581 3.00332L8.94305 3.6661L12.0299 0.756096L15.1057 3.62467L19.4141 2.99296ZM9.25396 7.29065C8.81221 7.29065 8.38856 7.45431 8.0762 7.74563C7.76384 8.03694 7.58836 8.43205 7.58836 8.84404C7.58836 9.25602 7.76384 9.65113 8.0762 9.94244C8.38856 10.2338 8.81221 10.3974 9.25396 10.3974C9.6957 10.3974 10.1194 10.2338 10.4317 9.94244C10.7441 9.65113 10.9196 9.25602 10.9196 8.84404C10.9196 8.43205 10.7441 8.03694 10.4317 7.74563C10.1194 7.45431 9.6957 7.29065 9.25396 7.29065ZM14.8059 14.5398C14.3642 14.5398 13.9405 14.7034 13.6282 14.9947C13.3158 15.2861 13.1403 15.6812 13.1403 16.0932C13.1403 16.5051 13.3158 16.9002 13.6282 17.1916C13.9405 17.4829 14.3642 17.6465 14.8059 17.6465C15.2477 17.6465 15.6713 17.4829 15.9837 17.1916C16.2961 16.9002 16.4715 16.5051 16.4715 16.0932C16.4715 15.6812 16.2961 15.2861 15.9837 14.9947C15.6713 14.7034 15.2477 14.5398 14.8059 14.5398ZM8.04363 17.6465L17.5819 8.75083L16.0163 7.29065L6.47797 16.1864L8.04363 17.6465Z" fill="black"/>
</g>
<defs>
<clipPath id="clip0">
<rect width="23.9401" height="23.4146" fill="white" transform="translate(0.0598755 0.756096)"/>
</clipPath>
</defs>
</svg>
